<?xml version="1.0" encoding="utf-8"?>
<!-- Generator: Adobe Illustrator 25.2.1, SVG Export Plug-In . SVG Version: 6.00 Build 0)  -->
<svg version="1.1" id="Layer_1" xmlns="http://www.w3.org/2000/svg" xmlns:xlink="http://www.w3.org/1999/xlink" x="0px" y="0px"
	 viewBox="0 0 1048.82 1048.82" style="enable-background:new 0 0 1048.82 1048.82;" xml:space="preserve">
<style type="text/css">
	.st0{fill:none;}
	.st1{fill:#789995;}
	.st2{opacity:0.3;}
	.st3{fill:url(#SVGID_7_);}
	.st4{fill:url(#SVGID_8_);}
	.st5{fill:url(#SVGID_9_);}
	.st6{fill:url(#SVGID_10_);}
	.st7{fill:url(#SVGID_11_);}
	.st8{fill:url(#SVGID_12_);}
</style>
<pattern  width="38.77" height="38.77" patternUnits="userSpaceOnUse" id="SVGID_1_" viewBox="0 -38.77 38.77 38.77" style="overflow:visible;">
	<g>
		<rect y="-38.77" class="st0" width="38.77" height="38.77"/>
		<g>
			<rect y="-38.77" class="st0" width="38.77" height="38.77"/>
			<circle class="st1" cx="19.39" cy="-19.38" r="17.97"/>
		</g>
	</g>
</pattern>
<pattern  width="38.77" height="38.77" patternUnits="userSpaceOnUse" id="SVGID_2_" viewBox="0 -38.77 38.77 38.77" style="overflow:visible;">
	<g>
		<rect y="-38.77" class="st0" width="38.77" height="38.77"/>
		<g>
			<rect y="-38.77" class="st0" width="38.77" height="38.77"/>
			<circle class="st1" cx="19.39" cy="-19.38" r="17.97"/>
		</g>
	</g>
</pattern>
<pattern  width="38.77" height="38.77" patternUnits="userSpaceOnUse" id="SVGID_3_" viewBox="0 -38.77 38.77 38.77" style="overflow:visible;">
	<g>
		<rect y="-38.77" class="st0" width="38.77" height="38.77"/>
		<g>
			<rect y="-38.77" class="st0" width="38.77" height="38.77"/>
			<circle class="st1" cx="19.39" cy="-19.38" r="17.97"/>
		</g>
	</g>
</pattern>
<pattern  width="38.77" height="38.77" patternUnits="userSpaceOnUse" id="SVGID_4_" viewBox="0 -38.77 38.77 38.77" style="overflow:visible;">
	<g>
		<rect y="-38.77" class="st0" width="38.77" height="38.77"/>
		<g>
			<rect y="-38.77" class="st0" width="38.77" height="38.77"/>
			<circle class="st1" cx="19.39" cy="-19.38" r="17.97"/>
		</g>
	</g>
</pattern>
<pattern  width="38.77" height="38.77" patternUnits="userSpaceOnUse" id="SVGID_5_" viewBox="0 -38.77 38.77 38.77" style="overflow:visible;">
	<g>
		<rect y="-38.77" class="st0" width="38.77" height="38.77"/>
		<g>
			<rect y="-38.77" class="st0" width="38.77" height="38.77"/>
			<circle class="st1" cx="19.39" cy="-19.38" r="17.97"/>
		</g>
	</g>
</pattern>
<pattern  width="38.77" height="38.77" patternUnits="userSpaceOnUse" id="SVGID_6_" viewBox="0 -38.77 38.77 38.77" style="overflow:visible;">
	<g>
		<rect y="-38.77" class="st0" width="38.77" height="38.77"/>
		<g>
			<rect y="-38.77" class="st0" width="38.77" height="38.77"/>
			<circle class="st1" cx="19.39" cy="-19.38" r="17.97"/>
		</g>
	</g>
</pattern>
<g>
	<g class="st2">
		
			<pattern  id="SVGID_7_" xlink:href="#SVGID_1_" patternTransform="matrix(0 1.0953 1.0953 0 -15133.0957 -484.2396)"  class="st2">
		</pattern>
		<ellipse class="st3" cx="525.29" cy="937.31" rx="63.23" ry="62.54"/>
		
			<pattern  id="SVGID_8_" xlink:href="#SVGID_2_" patternTransform="matrix(0 1.0953 1.0953 0 -15133.0957 -484.2396)"  class="st2">
		</pattern>
		<ellipse class="st4" cx="525.29" cy="771.01" rx="79.04" ry="78.17"/>
		
			<pattern  id="SVGID_9_" xlink:href="#SVGID_3_" patternTransform="matrix(0 1.0953 1.0953 0 -15133.0957 -484.2396)"  class="st2">
		</pattern>
		<ellipse class="st5" cx="525.29" cy="573.45" rx="94.85" ry="93.81"/>
		
			<pattern  id="SVGID_10_" xlink:href="#SVGID_4_" patternTransform="matrix(0 1.0953 1.0953 0 -15133.0957 -484.2396)"  class="st2">
		</pattern>
		<ellipse class="st6" cx="525.29" cy="158.41" rx="110.66" ry="109.44"/>
		
			<pattern  id="SVGID_11_" xlink:href="#SVGID_5_" patternTransform="matrix(0 1.0953 1.0953 0 -15133.0957 -484.2396)"  class="st2">
		</pattern>
		<path class="st7" d="M554.41,349.18c3.66-50.03,45.24-77.37,95.2-88.77c76.04-17.35,377.4,7.05,392.31,80.35
			C1057.93,419.43,809.7,598.12,660.78,520c-47.31-24.82-111.59-89.72-106.46-169.58C554.35,350.01,554.38,349.59,554.41,349.18z"/>
		
			<pattern  id="SVGID_12_" xlink:href="#SVGID_6_" patternTransform="matrix(0 1.0953 1.0953 0 -15133.0957 -484.2396)"  class="st2">
		</pattern>
		<path class="st8" d="M496.17,349.18c-3.66-50.03-45.24-77.37-95.2-88.77c-76.04-17.35-377.4,7.05-392.31,80.35
			C-7.35,419.43,240.88,598.12,389.8,520c47.31-24.82,111.59-89.72,106.46-169.58C496.23,350.01,496.2,349.59,496.17,349.18z"/>
	</g>
</g>
</svg>
